<svg width="75" height="75" viewBox="0 0 75 75" fill="none" xmlns="http://www.w3.org/2000/svg">
<g clip-path="url(#clip0_142_1010)">
<path d="M32.9079 21.6548C33.3734 20.8476 34.0429 20.1774 34.849 19.7114C35.6552 19.2453 36.5697 19 37.5006 19C38.4314 19 39.3459 19.2453 40.152 19.7114C40.9582 20.1774 41.6277 20.8476 42.0931 21.6548L56.7896 47.1433C57.255 47.9505 57.5 48.8662 57.5 49.7983C57.5 50.7304 57.255 51.6461 56.7896 52.4534C56.3241 53.2605 55.6547 53.9309 54.8484 54.397C54.0423 54.8631 53.1278 55.1084 52.1969 55.1084H22.8031C21.8722 55.1084 20.9577 54.8631 20.1515 54.397C19.3454 53.9309 18.6759 53.2605 18.2105 52.4534C17.745 51.6461 17.5 50.7304 17.5 49.7983C17.5 48.8662 17.745 47.9505 18.2105 47.1433L32.9079 21.6548Z" fill="#3772FF"/>
<path d="M37.3677 36.021C37.9804 36.365 38.4319 36.9384 38.6229 37.6155C38.8138 38.2924 38.7286 39.0176 38.3859 39.6318L30.0768 55.1086H23.6545L33.7582 37.0394C33.9284 36.7352 34.1568 36.4676 34.4303 36.2518C34.7038 36.036 35.0171 35.8762 35.3523 35.7817C35.6874 35.6871 36.0379 35.6595 36.3838 35.7007C36.7296 35.7417 37.0639 35.8504 37.3677 36.021Z" fill="#90DBFB"/>
<path d="M38.5417 55.1146L43.304 46.5982C43.4741 46.294 43.7025 46.0263 43.9759 45.8104C44.2493 45.5945 44.5627 45.4346 44.8978 45.34C45.233 45.2453 45.5834 45.2177 45.9293 45.2586C46.2751 45.2996 46.6096 45.4084 46.9133 45.5787C47.2172 45.749 47.4846 45.9776 47.7002 46.2516C47.9159 46.5254 48.0755 46.839 48.17 47.1745C48.2646 47.5102 48.2922 47.8612 48.2512 48.2074C48.2103 48.5537 48.1018 48.8885 47.9317 49.1927L44.6246 55.1082" fill="white"/>
</g>
<defs>
<clipPath id="clip0_142_1010">
<rect width="40" height="37" fill="white" transform="translate(17.5 19)"/>
</clipPath>
</defs>
</svg>
