<svg width="75" height="75" viewBox="0 0 75 75" fill="none" xmlns="http://www.w3.org/2000/svg">
<g clip-path="url(#clip0_142_1010)">
<path fill-rule="evenodd" clip-rule="evenodd" d="M23.0634 21.5C23.3881 21.5 23.7078 21.5799 23.9943 21.7327C24.2809 21.8854 24.5255 22.1062 24.7066 22.3757C24.8877 22.6452 24.9997 22.9551 25.0328 23.2782C25.0659 23.6012 25.019 23.9274 24.8964 24.228L19.3684 36.862C19.222 37.2398 18.9632 37.5636 18.6269 37.7897C18.2907 38.0158 17.8932 38.1333 17.4881 38.1263C17.0829 38.1193 16.6897 37.9882 16.3614 37.7507C16.0332 37.5131 15.7857 37.1806 15.6524 36.798C15.6014 36.639 10.1184 23.874 10.1184 23.874C10.0406 23.6658 10.001 23.4453 10.0014 23.223C9.98349 22.7848 10.1401 22.3573 10.4368 22.0344C10.7335 21.7114 11.1462 21.5192 11.5844 21.5H23.0634Z" fill="#613CEA"/>
<path fill-rule="evenodd" clip-rule="evenodd" d="M19.3008 44.7434C19.1121 44.3717 19.0243 43.9568 19.0465 43.5405C19.0686 43.1242 19.1997 42.721 19.4268 42.3714C19.8508 41.7214 26.9018 23.8714 26.9018 23.8714C27.1066 23.1784 27.5326 22.5714 28.1148 22.1433C28.6969 21.7151 29.4033 21.4893 30.1258 21.5004H36.4588C36.741 21.501 37.0187 21.5711 37.2674 21.7045C37.5161 21.8379 37.7281 22.0304 37.8848 22.2652C38.0414 22.4999 38.1379 22.7696 38.1656 23.0504C38.1933 23.3312 38.1515 23.6146 38.0438 23.8754C38.0438 23.8754 26.8988 52.5384 26.7888 52.7844C26.6309 53.1379 26.3728 53.4374 26.0465 53.6457C25.7201 53.8541 25.3399 53.9622 24.9527 53.9566C24.5656 53.9511 24.1885 53.8322 23.8683 53.6146C23.548 53.397 23.2986 53.0903 23.1508 52.7324C23.1508 52.7324 19.6938 45.5134 19.3008 44.7434Z" fill="#8D70F8"/>
<path fill-rule="evenodd" clip-rule="evenodd" d="M33.4316 44.7434C33.2429 44.3717 33.1552 43.9568 33.1773 43.5405C33.1994 43.1242 33.3306 42.721 33.5576 42.3714C33.9816 41.7214 40.2406 23.8714 40.2406 23.8714C40.4454 23.1784 40.8714 22.5714 41.4536 22.1433C42.0358 21.7151 42.7421 21.4893 43.4646 21.5004H49.7976C50.0797 21.5014 50.3571 21.5717 50.6055 21.7052C50.854 21.8387 51.0657 22.0313 51.2221 22.266C51.3785 22.5007 51.4748 22.7702 51.5025 23.0509C51.5301 23.3315 51.4883 23.6147 51.3806 23.8754C51.3806 23.8754 40.2366 52.5384 40.1246 52.7844C39.9667 53.1379 39.7086 53.4374 39.3823 53.6457C39.0559 53.8541 38.6757 53.9622 38.2885 53.9566C37.9014 53.9511 37.5243 53.8322 37.2041 53.6146C36.8838 53.397 36.6344 53.0903 36.4866 52.7324C36.4866 52.7324 33.8246 45.5134 33.4316 44.7434Z" fill="#9B8FFA"/>
<path fill-rule="evenodd" clip-rule="evenodd" d="M55.4844 21.6481C58.3604 22.4391 65.8064 25.4721 64.9204 35.5391C64.4434 38.1265 63.1908 40.5076 61.3288 42.3663C59.4668 44.2251 57.0835 45.4736 54.4954 45.9461L47.9784 45.9401C47.6423 45.9398 47.3118 45.854 47.018 45.6907C46.7243 45.5274 46.4769 45.292 46.2992 45.0067C46.1216 44.7214 46.0195 44.3956 46.0025 44.06C45.9856 43.7243 46.0543 43.3898 46.2024 43.0881C46.2024 43.0881 48.4444 37.8211 48.5704 37.5611C48.7321 37.2254 48.9854 36.9422 49.301 36.744C49.6166 36.5459 49.9817 36.4409 50.3544 36.4411C51.4474 36.4411 52.9404 36.4671 52.9404 36.4671C52.9404 36.4671 54.9404 36.8121 55.1464 34.2561L55.2094 33.4671C55.2873 32.8347 55.1569 32.1942 54.8381 31.6425C54.5192 31.0909 54.0292 30.6582 53.4424 30.4101L52.5784 30.3451C51.1254 30.2881 51.8514 28.6531 51.8524 28.6451L53.9174 22.9841C53.9174 22.9841 54.3844 20.9431 55.4844 21.6481Z" fill="#9B8FFA"/>
</g>
<defs>
<clipPath id="clip0_142_1010">
<rect width="59" height="32" fill="white" transform="translate(8 21.5)"/>
</clipPath>
</defs>
</svg>
